<svg width="19" height="19" viewBox="0 0 19 19" fill="none" xmlns="http://www.w3.org/2000/svg">
<path d="M5.16667 8.5L8.5 1C9.16304 1 9.79893 1.26339 10.2678 1.73223C10.7366 2.20107 11 2.83696 11 3.5V6.83333H15.7167C15.9583 6.8306 16.1976 6.88042 16.418 6.97935C16.6384 7.07828 16.8347 7.22395 16.9932 7.40626C17.1518 7.58858 17.2688 7.80318 17.3361 8.03521C17.4035 8.26723 17.4196 8.51113 17.3833 8.75L16.2333 16.25C16.1731 16.6474 15.9712 17.0097 15.6649 17.27C15.3586 17.5303 14.9686 17.6712 14.5667 17.6667H5.16667M5.16667 8.5V17.6667M5.16667 8.5H2.66667C2.22464 8.5 1.80072 8.67559 1.48816 8.98816C1.17559 9.30072 1 9.72464 1 10.1667V16C1 16.442 1.17559 16.866 1.48816 17.1785C1.80072 17.4911 2.22464 17.6667 2.66667 17.6667H5.16667" stroke="#EAB308" stroke-width="2" stroke-linecap="round" stroke-linejoin="round"/>
</svg>
