<svg width="20" height="20" viewBox="0 0 20 20" fill="none" xmlns="http://www.w3.org/2000/svg">
<path d="M2.5 4.99984L5 1.6665H15L17.5 4.99984M2.5 4.99984V16.6665C2.5 17.1085 2.67559 17.5325 2.98816 17.845C3.30072 18.1576 3.72464 18.3332 4.16667 18.3332H15.8333C16.2754 18.3332 16.6993 18.1576 17.0118 17.845C17.3244 17.5325 17.5 17.1085 17.5 16.6665V4.99984M2.5 4.99984H17.5M13.3333 8.33317C13.3333 9.21722 12.9821 10.0651 12.357 10.6902C11.7319 11.3153 10.8841 11.6665 10 11.6665C9.11595 11.6665 8.2681 11.3153 7.64298 10.6902C7.01786 10.0651 6.66667 9.21722 6.66667 8.33317" stroke="#EAB308" stroke-width="2" stroke-linecap="round" stroke-linejoin="round"/>
</svg>
