<svg width="20" height="17" viewBox="0 0 20 17" fill="none" xmlns="http://www.w3.org/2000/svg">
<path d="M13.3335 11.8333V1H0.833496V11.8333H13.3335ZM13.3335 11.8333H19.1668V7.66667L16.6668 5.16667H13.3335L13.3335 11.8333ZM6.66683 13.9167C6.66683 15.0673 5.73409 16 4.5835 16C3.4329 16 2.50016 15.0673 2.50016 13.9167C2.50016 12.7661 3.4329 11.8333 4.5835 11.8333C5.73409 11.8333 6.66683 12.7661 6.66683 13.9167ZM17.5002 13.9167C17.5002 15.0673 16.5674 16 15.4168 16C14.2662 16 13.3335 15.0673 13.3335 13.9167C13.3335 12.7661 14.2662 11.8333 15.4168 11.8333C16.5674 11.8333 17.5002 12.7661 17.5002 13.9167Z" stroke="#EAB308" stroke-width="2" stroke-linecap="round" stroke-linejoin="round"/>
</svg>
